<svg width="36" height="36" viewBox="0 0 36 36" fill="none" xmlns="http://www.w3.org/2000/svg">
<rect width="36" height="36" fill="#F2F2F2"/>
<path d="M29.944 18.302C29.944 18.8847 28.5947 19.5593 25.896 20.326C26.1413 23.5153 26.264 26.2293 26.264 28.468C26.264 32.332 25.7733 34.264 24.792 34.264C24.2707 34.264 23.8567 33.942 23.55 33.298C23.2433 32.654 22.998 31.5347 22.814 29.94C22.5993 26.996 22.3693 24.1133 22.124 21.292C20.744 21.66 19.4867 21.9973 18.352 22.304C17.2173 22.58 15.5 23.04 13.2 23.684C10.5013 30.7373 8.90667 34.264 8.416 34.264C7.92533 34.264 7.38867 33.9727 6.806 33.39C6.254 32.7767 5.978 32.1327 5.978 31.458C5.978 31.1513 6.852 28.974 8.6 24.926H8.278C7.66467 24.926 7.11267 24.7267 6.622 24.328C6.162 23.9293 5.932 23.4387 5.932 22.856C5.932 22.2427 7.45 21.4453 10.486 20.464C10.9767 19.36 11.3753 18.3633 11.682 17.474C12.3873 15.726 13.3687 13.334 14.626 10.298C15.8833 7.262 16.6807 5.33 17.018 4.502C17.3553 3.64333 17.938 2.92266 18.766 2.34C19.6247 1.72667 20.4527 1.42 21.25 1.42C22.2007 1.42 23.044 2.938 23.78 5.974C24.5467 9.01 25.16 12.7667 25.62 17.244C26.4787 17.152 27.23 17.106 27.874 17.106C29.254 17.106 29.944 17.5047 29.944 18.302ZM14.902 19.268C17.0793 18.6853 19.3793 18.1947 21.802 17.796C21.25 12.552 20.7133 8.61133 20.192 5.974C18.812 9.13267 17.0487 13.564 14.902 19.268Z" fill="#2F2F2F"/>
</svg>
